<?xml version="1.0" standalone="no"?>
<!DOCTYPE svg PUBLIC "-//W3C//DTD SVG 20010904//EN"
 "http://www.w3.org/TR/2001/REC-SVG-20010904/DTD/svg10.dtd">
<svg version="1.0" xmlns="http://www.w3.org/2000/svg"
 width="1024.000000pt" height="1024.000000pt" viewBox="0 0 1024.000000 1024.000000"
 preserveAspectRatio="xMidYMid meet">
<metadata>
Created by potrace 1.14, written by Peter Selinger 2001-2017
</metadata>
<g transform="translate(0.000000,1024.000000) scale(0.100000,-0.100000)"
fill="#000000" stroke="none">
<path d="M3958 9367 c-51 -80 -58 -241 -16 -352 19 -50 76 -114 110 -123 18
-4 33 -13 36 -20 2 -8 -19 -10 -80 -5 -143 10 -404 -29 -423 -63 -20 -37 -144
-154 -163 -154 -31 0 -57 37 -56 82 l1 40 -36 -7 c-19 -4 -56 -17 -81 -28 -40
-19 -47 -28 -63 -76 -23 -70 -24 -200 -1 -281 9 -33 20 -63 25 -65 12 -8 137
61 214 118 111 84 108 77 -20 -50 -97 -95 -137 -127 -205 -163 -142 -75 -208
-87 -283 -49 -55 28 -82 53 -121 114 -18 28 -41 58 -51 68 -16 17 -19 17 -44
1 -146 -95 -173 -415 -50 -609 52 -82 146 -182 258 -273 134 -108 126 -101
119 -107 -3 -4 -46 12 -94 34 -89 40 -89 40 -97 18 -14 -35 1 -206 27 -308 43
-169 83 -248 205 -405 53 -68 73 -107 141 -274 177 -441 255 -600 292 -600 6
0 8 24 4 68 l-7 67 33 22 c34 23 77 29 137 19 35 -5 51 -19 51 -47 0 -9 9 -24
20 -34 22 -20 26 -55 8 -73 -7 -7 -9 -12 -6 -12 4 0 0 -16 -8 -35 -18 -45 -18
-136 1 -182 38 -90 101 -139 239 -184 44 -15 82 -31 84 -37 1 -5 -11 -15 -28
-20 -67 -24 -19 -42 109 -42 138 0 233 38 389 154 108 80 218 156 226 156 4 0
6 -8 6 -17 0 -9 3 -13 6 -10 4 3 9 43 13 88 l6 81 65 22 c36 13 105 40 153 61
101 43 99 44 117 -43 12 -56 35 -78 61 -59 9 7 19 22 23 35 10 31 43 36 133
18 127 -25 239 -36 373 -36 280 1 461 56 593 180 34 32 59 61 55 66 -4 4 -13
2 -20 -4 -7 -6 -17 -11 -23 -11 -5 -1 -23 -5 -40 -10 -119 -34 -175 -44 -175
-31 0 4 17 19 38 33 61 43 129 118 159 177 24 48 27 66 27 140 0 78 -3 92 -38
163 -28 57 -49 87 -78 107 -46 33 -123 64 -185 75 -24 4 -43 12 -43 19 0 22
90 165 127 201 43 42 124 70 235 80 l77 7 -6 32 c-11 64 -43 115 -89 142 -72
42 -256 93 -194 54 13 -9 13 -10 0 -10 -25 0 -92 40 -133 78 -35 34 -39 36
-51 19 -7 -9 -30 -66 -51 -125 -21 -59 -56 -143 -77 -187 -45 -90 -221 -381
-256 -423 l-22 -27 20 50 c13 33 15 43 5 30 -8 -11 -50 -67 -92 -125 -99 -134
-215 -256 -251 -264 -15 -3 -61 -15 -102 -26 l-75 -20 -28 20 c-57 43 -62 -1
-12 -103 19 -39 35 -72 35 -74 0 -2 -21 -3 -47 -1 -47 3 -48 4 -75 58 -14 30
-31 66 -38 80 -9 21 -9 15 -5 -30 19 -179 19 -167 -4 -180 -23 -12 -41 -4 -67
29 -9 11 -12 5 -17 -30 -6 -47 -29 -72 -62 -67 -17 3 -21 13 -26 63 -7 73 -34
177 -59 225 -26 48 -25 20 4 -72 23 -75 23 -77 4 -64 -18 13 -25 12 -57 -4
-40 -22 -149 -40 -250 -42 -98 -1 -285 65 -423 150 -38 23 -50 19 -25 -8 10
-12 9 -12 -8 0 -41 29 -181 150 -214 184 -19 20 -41 36 -47 36 -19 0 -55 -52
-115 -164 l-52 -99 -18 64 c-35 125 -128 475 -134 508 -6 27 0 46 26 98 52 99
84 130 164 160 61 23 89 26 220 30 84 2 225 -3 320 -11 250 -21 416 -15 539
18 55 15 138 45 184 68 72 34 104 59 216 167 478 458 849 731 994 731 41 0
118 -43 192 -106 36 -30 77 -62 92 -70 32 -16 39 -39 64 -202 l18 -113 91 -76
c49 -42 105 -92 124 -112 19 -20 28 -27 20 -16 -13 18 -13 19 3 6 10 -7 30
-38 44 -70 37 -77 164 -438 170 -480 2 -18 11 -50 20 -70 9 -20 25 -56 35 -81
49 -113 51 -115 94 -115 l40 0 -2 65 c0 36 -10 112 -21 170 -42 223 -38 327
19 451 37 80 38 53 -17 419 -55 367 -95 550 -168 760 -145 418 -163 459 -229
516 -45 39 -140 84 -177 84 -14 0 -22 -11 -30 -42 -21 -83 -30 -89 -48 -30 -7
20 -32 59 -56 85 -32 34 -51 68 -66 115 -31 95 -53 133 -114 200 -136 146
-361 195 -596 130 -62 -17 -133 -29 -205 -33 -234 -13 -342 -24 -390 -41 -39
-14 -83 -18 -195 -18 -164 0 -290 22 -525 93 -186 55 -180 55 -197 28z m1420
-267 c19 -36 11 -183 -13 -235 l-19 -40 -7 95 c-9 127 -12 182 -10 198 2 21
34 9 49 -18z m447 -280 c61 -29 88 -52 120 -102 16 -27 16 -27 -4 -23 -18 3
-20 1 -11 -16 12 -22 -4 -27 -17 -6 -8 14 -140 80 -183 92 -52 15 -91 75 -57
89 23 9 92 -6 152 -34z m316 -2266 c136 -40 198 -195 134 -332 -51 -109 -178
-202 -332 -243 -62 -17 -109 -21 -228 -21 -82 -1 -169 2 -192 6 -39 7 -43 10
-43 37 0 40 19 83 74 167 26 39 45 74 44 79 -4 11 86 127 143 184 112 112 271
161 400 123z m-2131 -776 c0 -87 21 -139 73 -185 71 -62 153 -57 227 15 57 56
74 116 46 170 -22 42 -22 42 24 42 55 0 113 -25 140 -62 l23 -31 -89 -86 c-71
-69 -108 -96 -186 -135 -89 -45 -105 -50 -181 -54 -60 -3 -100 0 -143 13 -115
33 -199 156 -179 263 15 86 67 122 173 122 l72 0 0 -72z m161 -171 c-8 -8 -11
-7 -11 4 0 20 13 34 18 19 3 -7 -1 -17 -7 -23z"/>
<path d="M5768 6382 c-93 -61 -111 -189 -42 -295 56 -86 174 -99 245 -28 78
78 73 219 -13 298 -48 45 -141 57 -190 25z"/>
<path d="M5609 6263 c-13 -16 -12 -17 4 -4 16 13 21 21 13 21 -2 0 -10 -8 -17
-17z"/>
<path d="M9335 8863 c-40 -9 -595 -165 -765 -215 -216 -63 -236 -71 -244 -100
-3 -13 -27 -46 -54 -74 -26 -29 -60 -67 -76 -85 -17 -19 -82 -90 -146 -159
-64 -69 -195 -213 -292 -320 -96 -107 -203 -221 -236 -252 -33 -32 -57 -58
-54 -58 4 0 0 -5 -8 -10 -10 -7 14 -10 76 -10 l92 0 -4 38 c-2 20 -6 53 -9 73
-4 33 0 40 89 127 51 51 96 89 99 85 4 -3 7 -1 7 5 0 7 7 12 15 12 8 0 15 6
15 14 0 8 5 18 12 22 7 4 8 3 4 -4 -4 -7 -2 -12 4 -12 6 0 8 -5 4 -12 -4 -7
-3 -8 5 -4 6 4 9 12 6 17 -11 17 4 9 25 -13 11 -12 20 -16 20 -10 0 9 5 10 19
2 11 -5 31 -10 45 -10 14 0 28 -5 31 -10 4 -7 13 -7 26 0 14 8 19 7 19 -3 0
-17 42 -17 53 1 5 7 12 10 16 7 5 -2 14 2 21 10 7 8 18 15 25 15 7 0 18 7 25
15 7 8 16 13 20 10 4 -2 34 12 66 32 124 75 155 93 164 93 11 0 12 -1 64 -240
25 -113 68 -304 96 -425 28 -120 49 -224 46 -230 -2 -6 -64 -49 -137 -95 -202
-127 -463 -301 -471 -314 -4 -6 -8 -6 -8 -1 0 6 -6 3 -13 -6 -7 -8 -32 -29
-57 -47 -81 -57 -85 -61 -72 -74 9 -9 7 -14 -6 -24 -15 -12 -14 -13 8 -9 l25
4 -25 -19 c-15 -12 -18 -18 -7 -14 19 7 24 -11 6 -22 -8 -4 -7 -9 2 -15 14 -8
69 19 69 35 0 5 3 7 6 4 3 -3 89 35 192 84 188 91 523 238 542 238 5 0 15 -20
21 -45 6 -25 15 -42 20 -39 5 3 6 -1 3 -9 -3 -8 3 -20 12 -28 15 -12 17 -12 9
0 -6 10 -4 12 4 7 7 -5 10 -11 7 -14 -3 -3 0 -12 8 -21 8 -9 16 -20 17 -26 8
-30 24 -65 31 -65 4 0 8 -14 8 -31 0 -18 4 -28 10 -24 6 4 7 11 4 17 -5 7 -2
8 5 4 8 -5 10 -19 6 -39 -5 -24 -4 -28 4 -17 9 13 11 12 11 -3 0 -10 5 -15 10
-12 6 3 11 0 11 -7 6 -50 18 -88 28 -88 4 0 8 -7 9 -15 1 -8 3 -22 4 -30 1 -8
5 -12 9 -9 4 2 14 -2 21 -9 8 -9 27 -12 48 -10 27 3 31 2 20 -6 -19 -14 6 -10
210 35 85 18 194 39 243 46 67 9 87 16 87 28 0 8 -16 89 -35 179 -41 193 -42
195 -15 188 11 -3 18 -2 15 2 -6 10 200 45 213 37 6 -3 13 -2 17 4 3 5 13 10
21 10 10 0 12 -5 8 -12 -6 -10 -5 -10 8 -1 8 7 18 10 21 6 4 -3 7 -1 7 5 0 7
6 12 14 12 29 0 44 28 40 72 -24 234 -47 393 -68 463 -8 28 -17 73 -21 100
-19 146 -83 431 -135 605 -15 52 -31 109 -35 125 -30 135 -175 479 -212 506
-11 8 -23 26 -27 42 -6 27 -21 32 -71 20z m-1395 -2176 c0 -2 -10 -12 -22 -23
l-23 -19 19 23 c18 21 26 27 26 19z m-6 -113 c3 -8 2 -12 -4 -9 -6 3 -10 10
-10 16 0 14 7 11 14 -7z m1001 -54 c3 -5 1 -10 -4 -10 -6 0 -11 5 -11 10 0 6
2 10 4 10 3 0 8 -4 11 -10z m40 -80 c3 -5 1 -10 -4 -10 -6 0 -11 5 -11 10 0 6
2 10 4 10 3 0 8 -4 11 -10z"/>
<path d="M649 8348 c-15 -28 -87 -276 -95 -329 -6 -35 -4 -39 20 -49 15 -5 42
-21 59 -34 38 -28 444 -254 687 -383 52 -28 133 -71 180 -96 47 -24 132 -70
190 -102 116 -64 260 -135 273 -135 18 0 183 -83 207 -104 l25 -21 -19 22
c-10 13 -50 49 -88 80 -38 32 -63 60 -57 62 7 2 18 -4 24 -13 11 -15 15 -14
41 6 16 12 23 15 16 6 -16 -20 1 -34 17 -14 8 10 8 16 -2 25 -8 6 -17 8 -20 4
-4 -3 -9 1 -13 10 -3 9 -22 28 -42 43 -19 15 -32 21 -28 13 5 -8 -7 2 -26 22
-18 20 -115 99 -216 175 -101 77 -213 163 -250 191 -75 59 -598 457 -642 488
-128 92 -219 155 -224 155 -3 0 -11 -10 -17 -22z"/>
<path d="M491 7702 c-10 -19 -61 -317 -61 -354 1 -14 26 -50 69 -96 l69 -74
-39 -146 c-43 -163 -122 -482 -136 -552 -7 -38 -12 -45 -30 -43 -28 3 -33 -12
-43 -137 -5 -58 -14 -143 -20 -190 -5 -47 -10 -128 -10 -181 l0 -96 106 -38
c81 -29 108 -43 114 -60 11 -28 35 -32 217 -34 78 -1 175 -8 216 -16 40 -8
166 -17 280 -21 189 -6 207 -6 207 9 0 10 8 17 21 17 11 0 17 5 14 10 -3 6 0
13 9 16 12 5 12 8 -3 22 -24 24 -94 56 -426 199 -159 69 -294 129 -300 135 -7
8 -5 9 8 5 9 -4 17 -2 17 3 0 6 -5 10 -12 10 -6 0 -9 2 -6 5 9 10 38 -7 32
-19 -3 -6 4 0 15 12 17 19 19 28 10 44 -10 18 -7 24 12 39 13 10 27 19 30 19
12 0 17 39 5 43 -17 6 -3 17 27 19 14 1 23 7 20 12 -4 5 1 7 10 3 11 -4 14 -2
10 9 -3 7 0 14 7 14 6 0 8 5 5 10 -3 6 1 10 9 10 9 0 16 5 16 11 0 5 4 8 9 5
13 -8 29 16 26 42 -1 13 4 22 12 22 7 0 13 5 13 10 0 6 9 10 21 10 19 0 19 1
5 16 -9 8 -16 18 -16 21 0 4 3 3 7 0 3 -4 12 -2 20 5 7 6 17 8 20 4 4 -4 1
-11 -7 -16 -8 -6 -10 -10 -5 -10 15 0 45 37 45 55 0 8 -4 15 -10 15 -5 0 -7
-6 -4 -14 6 -17 -12 -31 -21 -16 -3 5 -1 10 4 10 6 0 10 5 8 11 -1 6 12 16 28
22 17 5 39 18 51 28 11 11 26 19 32 19 7 0 12 5 12 11 0 5 4 8 9 5 10 -7 62
107 81 177 7 27 19 51 26 54 8 3 43 -4 79 -15 35 -11 62 -16 59 -11 -5 8 20
13 30 7 2 -2 13 5 25 16 18 16 23 17 38 5 15 -13 16 -12 11 8 -4 14 -2 22 6
20 6 -1 10 8 8 23 -3 24 -2 24 13 5 12 -16 14 -17 9 -2 -4 12 -1 17 12 17 16
0 17 2 4 10 -8 5 -13 10 -10 11 3 0 13 2 23 4 14 3 17 -1 13 -13 -5 -13 -3
-13 9 2 8 10 12 22 10 26 -3 4 2 13 10 20 8 7 15 9 15 4 0 -4 6 1 14 11 8 11
12 24 9 30 -4 5 -3 7 2 3 4 -4 20 -1 36 7 34 18 53 19 43 3 -4 -7 -3 -8 5 -4
26 17 -39 63 -234 166 -224 118 -300 158 -390 205 -49 25 -117 61 -150 79 -33
19 -107 58 -165 88 -58 31 -156 83 -217 116 -141 75 -141 75 -152 54z m323
-617 c79 -45 87 -52 83 -75 -3 -14 -34 -131 -70 -260 -35 -129 -77 -289 -92
-355 -15 -66 -29 -122 -31 -124 -5 -6 -78 28 -166 77 -76 42 -77 44 -71 75 15
80 153 534 205 674 22 60 13 61 142 -12z m169 -719 c3 3 5 0 4 -8 -4 -22 -21
-21 -29 3 -7 18 -6 20 5 10 8 -6 16 -8 20 -5z m-162 -179 c-10 -9 -11 -8 -5 6
3 10 9 15 12 12 3 -3 0 -11 -7 -18z m-18 -82 c-3 -9 -8 -14 -10 -11 -3 3 -2 9
2 15 9 16 15 13 8 -4z"/>
<path d="M7157 7030 c-14 -12 -41 -50 -58 -86 -27 -54 -33 -81 -37 -148 l-4
-83 46 -52 c43 -49 46 -55 46 -109 0 -36 -9 -84 -27 -132 -31 -88 -27 -119 19
-162 22 -20 40 -28 68 -28 54 0 71 23 64 86 -4 30 0 82 11 134 31 153 0 283
-86 352 -46 37 -50 64 -15 101 22 23 29 25 51 17 15 -6 36 -20 47 -33 28 -32
85 -156 91 -197 3 -19 6 -37 6 -40 1 -3 6 2 11 10 25 39 5 202 -35 280 -49 98
-137 137 -198 90z"/>
<path d="M5325 6780 c-3 -5 -1 -10 4 -10 6 0 11 5 11 10 0 6 -2 10 -4 10 -3 0
-8 -4 -11 -10z"/>
<path d="M8780 6739 c0 -5 5 -7 10 -4 6 3 10 8 10 11 0 2 -4 4 -10 4 -5 0 -10
-5 -10 -11z"/>
<path d="M7803 6603 c0 -9 4 -10 14 -2 7 6 13 12 13 14 0 1 -6 2 -13 2 -8 0
-14 -6 -14 -14z"/>
<path d="M7866 6528 c3 -4 11 -5 19 -1 21 7 19 12 -4 10 -11 0 -18 -5 -15 -9z"/>
<path d="M9865 6101 c-33 -14 -76 -36 -95 -47 -19 -12 -66 -39 -105 -60 -38
-21 -72 -41 -75 -46 -14 -19 -81 -38 -117 -32 -47 7 -55 12 -47 26 4 6 3 8 -3
5 -5 -3 -24 9 -42 27 -30 31 -38 34 -89 32 -47 -1 -59 2 -78 23 l-22 24 -46
-39 c-26 -22 -54 -49 -62 -61 -18 -29 -72 -57 -104 -55 -39 3 -61 -44 -71
-148 -4 -47 -13 -99 -19 -114 -10 -27 -12 -27 -33 -13 -12 8 -37 40 -55 71
-29 49 -36 55 -49 45 -28 -24 -55 -19 -106 18 -57 42 -117 76 -117 67 0 -4 -6
-1 -13 5 -10 8 -22 7 -46 -2 -32 -12 -33 -14 -27 -54 6 -45 0 -73 -16 -73 -5
0 -6 5 -2 11 4 7 -2 6 -17 -1 -13 -7 -37 -13 -53 -12 -17 0 -36 -4 -43 -9 -7
-6 -16 -8 -21 -5 -6 3 -15 -1 -21 -8 -11 -13 -17 -12 -47 0 -25 10 -34 11 -34
2 0 -6 -3 -8 -7 -5 -3 4 -12 -2 -20 -13 -12 -17 -11 -24 3 -52 9 -18 27 -47
40 -65 31 -42 17 -48 -39 -19 -36 20 -46 22 -51 11 -3 -8 -1 -17 4 -20 12 -7
-6 -45 -21 -45 -15 0 -69 41 -100 76 -41 45 -112 78 -171 79 -30 0 -38 -4 -38
-17 0 -10 -4 -18 -9 -18 -5 0 -12 -12 -16 -27 -4 -16 -10 -22 -12 -15 -8 20
-23 3 -24 -26 0 -15 -3 -21 -6 -14 -2 6 -8 10 -13 7 -4 -3 -36 46 -71 108 -47
83 -85 134 -145 196 -45 46 -87 81 -92 77 -6 -3 -14 -1 -18 5 -5 8 -3 9 6 4 8
-5 11 -4 7 2 -10 16 -72 43 -98 43 -12 0 -31 7 -41 16 -16 16 -18 15 -24 0 -4
-11 18 -67 59 -149 37 -73 80 -169 97 -215 37 -104 76 -285 61 -290 -6 -2 -11
-21 -11 -43 l0 -39 -20 20 c-46 46 -56 26 -65 -134 -9 -162 -77 -329 -232
-570 -29 -45 -62 -93 -73 -108 -12 -15 -22 -31 -23 -35 0 -4 -10 -16 -21 -25
-12 -10 -17 -17 -13 -18 5 0 -9 -21 -30 -47 -22 -27 -54 -72 -72 -102 -18 -30
-38 -60 -44 -67 -30 -33 -37 -44 -37 -55 0 -10 -15 -34 -81 -129 -41 -59 -112
-154 -126 -168 -7 -7 -13 -17 -13 -20 0 -4 -10 -18 -23 -32 -12 -14 -49 -56
-81 -95 -115 -136 -242 -263 -301 -301 -117 -74 -497 -244 -546 -244 -11 0
-57 15 -103 34 -233 94 -619 353 -933 627 -56 49 -106 89 -110 90 -5 0 -24 16
-45 36 -20 19 -40 33 -45 30 -11 -7 -81 38 -100 62 -7 9 -13 12 -13 7 0 -5 -8
0 -18 10 -26 29 -77 62 -103 68 -20 5 -31 -3 -61 -43 -21 -27 -38 -54 -38 -60
0 -6 -5 -11 -11 -11 -5 0 -8 -4 -5 -9 3 -4 -1 -17 -9 -27 -8 -10 -15 -27 -15
-37 0 -10 -5 -15 -10 -12 -6 3 -10 1 -10 -6 0 -8 -4 -8 -15 1 -25 21 -19 -3
30 -114 70 -160 62 -173 -39 -61 -37 41 -73 73 -79 72 -20 -4 -99 -94 -102
-117 -2 -17 -28 -50 -39 -50 -8 0 -22 12 -31 27 -14 20 -19 23 -25 12 -15 -27
-21 -135 -11 -210 8 -58 7 -86 -3 -120 -17 -57 -14 -152 6 -204 11 -27 13 -42
6 -46 -6 -4 -8 -14 -5 -22 3 -8 1 -19 -5 -25 -7 -7 -30 4 -71 33 -34 23 -80
52 -102 63 -75 37 -377 86 -460 74 l-50 -8 100 -23 c208 -48 451 -138 446
-166 -1 -6 -28 -9 -67 -6 l-66 3 16 -29 c8 -16 33 -46 56 -67 23 -21 39 -40
37 -43 -3 -2 -40 2 -82 11 -119 25 -129 18 -37 -24 45 -22 82 -43 82 -49 0
-19 -76 -6 -151 26 -20 8 -44 13 -54 11 -12 -2 17 -28 86 -78 157 -112 161
-137 15 -104 -80 17 -219 21 -224 5 -2 -6 -9 -8 -15 -4 -7 4 -7 1 1 -9 10 -13
10 -18 1 -24 -7 -4 -9 -3 -6 3 3 5 0 10 -8 10 -10 0 -12 -4 -5 -12 5 -7 7 -15
4 -18 -4 -4 3 -4 15 -2 12 2 19 0 17 -4 -3 -4 8 -21 24 -36 17 -16 30 -25 30
-20 0 5 7 0 15 -11 8 -10 15 -14 15 -9 0 6 3 6 8 -1 4 -6 33 -31 64 -56 31
-26 53 -50 50 -54 -4 -4 -2 -4 4 -1 5 3 26 -9 46 -26 19 -18 65 -59 102 -92
103 -92 336 -376 380 -463 16 -31 16 -35 -5 -77 -66 -132 -292 -378 -479 -523
-58 -44 -113 -88 -123 -97 -11 -9 -34 -27 -52 -40 -25 -16 -31 -25 -23 -33 8
-8 3 -15 -18 -23 -16 -7 -33 -11 -37 -10 -5 1 -6 -3 -3 -8 10 -15 -22 -35 -37
-23 -8 7 -18 7 -27 2 -8 -5 -18 -7 -22 -4 -4 3 -25 0 -47 -7 -39 -11 -41 -11
-113 36 -73 49 -202 113 -241 121 -12 2 -39 -8 -60 -22 -62 -41 -110 -53 -193
-50 -42 2 -79 8 -82 13 -6 9 -46 26 -64 28 -3 0 -10 4 -15 9 -5 5 -3 6 5 2 28
-16 9 3 -25 26 -95 63 -153 147 -153 221 0 50 -6 59 -29 47 -40 -23 -112 -50
-130 -50 -11 0 -22 -4 -26 -9 -3 -5 -20 -13 -37 -17 -18 -3 -39 -10 -48 -14
-8 -4 -55 -15 -105 -24 -204 -38 -216 -50 -62 -60 56 -3 120 -11 141 -17 51
-14 86 -50 86 -89 0 -26 -17 -47 -111 -138 -104 -100 -169 -177 -169 -200 0
-14 157 -65 175 -58 8 3 15 1 15 -5 0 -6 4 -8 9 -4 12 7 -5 59 -25 76 -22 18
-16 31 14 27 22 -2 32 -14 56 -61 19 -39 32 -55 39 -48 14 14 46 -4 57 -32 8
-21 8 -21 19 7 10 25 15 28 45 23 37 -6 123 -46 266 -124 98 -53 184 -80 345
-107 259 -44 531 -79 795 -101 l75 -6 140 129 c228 211 451 447 543 576 32 43
68 94 82 112 14 19 50 70 80 114 43 62 60 79 80 80 14 0 47 13 75 28 48 26 51
31 95 137 40 95 124 255 134 255 2 0 25 -34 51 -76 70 -112 206 -273 346 -410
151 -147 203 -190 344 -286 264 -181 696 -398 996 -503 128 -44 131 -46 219
-127 41 -38 86 -72 100 -75 33 -9 223 10 482 47 1003 145 1529 300 1932 568
236 158 416 388 519 662 126 337 229 957 266 1600 30 515 40 1506 21 2005 -5
132 -12 339 -15 460 -7 244 -15 298 -51 333 -29 30 -30 36 -4 62 22 22 27 77
8 76 -7 0 -40 -11 -73 -25z"/>
<path d="M7340 6039 c0 -5 -5 -7 -12 -3 -7 4 -8 3 -4 -4 4 -6 13 -9 21 -6 8 4
12 10 9 15 -7 12 -14 11 -14 -2z"/>
<path d="M7313 6006 c4 -10 0 -14 -11 -11 -21 3 -47 -21 -32 -30 18 -11 66 5
88 28 20 22 21 23 2 23 -10 0 -16 -5 -13 -11 3 -5 0 -4 -8 3 -18 16 -32 15
-26 -2z"/>
<path d="M3233 5888 c-31 -35 -33 -53 -17 -108 12 -40 19 -50 31 -46 12 5 14
1 10 -14 -3 -12 -1 -18 5 -14 5 3 9 -2 7 -12 -5 -39 64 -170 131 -251 5 -7 10
-16 10 -20 0 -4 18 -28 40 -53 l39 -45 -60 120 c-58 115 -79 185 -65 220 5 14
8 15 27 2 42 -30 71 -86 114 -223 30 -93 59 -162 84 -201 57 -88 65 -85 29 9
-17 46 -70 197 -116 336 l-85 254 -46 34 c-56 41 -107 46 -138 12z"/>
<path d="M6485 5750 c3 -5 13 -10 21 -10 8 0 12 5 9 10 -3 6 -13 10 -21 10 -8
0 -12 -4 -9 -10z"/>
<path d="M6715 5750 c-9 -15 2 -27 30 -32 15 -3 25 -1 25 7 0 16 -47 37 -55
25z"/>
<path d="M5493 5370 c-137 -65 -183 -98 -248 -180 -40 -50 -69 -75 -110 -95
-51 -25 -62 -27 -143 -22 -119 8 -237 23 -251 31 -18 12 -13 -5 15 -46 44 -64
169 -160 308 -238 51 -29 56 -34 40 -43 -11 -6 -82 -13 -159 -15 -77 -2 -148
-9 -158 -14 -56 -29 -99 -231 -101 -473 l-1 -150 41 -85 c49 -103 85 -147 139
-171 72 -33 106 -24 275 72 236 134 350 177 737 278 327 86 409 118 496 199
96 90 122 199 71 300 -45 90 -243 253 -385 316 -168 74 -292 56 -543 -79 -77
-41 -142 -73 -144 -70 -2 2 26 55 63 116 107 179 175 324 175 375 0 24 -3 44
-7 43 -5 0 -54 -22 -110 -49z m535 -380 c17 -7 32 -18 32 -25 0 -7 -23 -28
-51 -46 -44 -28 -54 -31 -71 -20 -17 11 -18 10 -9 -7 8 -15 5 -24 -17 -44 -27
-25 -68 -50 -117 -68 -20 -7 -30 -5 -53 15 -16 14 -35 38 -42 55 -7 17 -15 29
-17 26 -2 -2 4 -21 15 -43 11 -21 24 -55 30 -76 9 -34 8 -39 -11 -51 -41 -26
-449 -153 -597 -187 -52 -12 -97 -25 -100 -29 -24 -35 -104 -39 -151 -7 -50
33 -73 86 -62 145 9 53 34 72 96 72 35 0 39 -3 58 -42 11 -24 17 -35 14 -25
-20 72 -25 67 56 67 41 0 108 9 149 20 65 17 77 17 89 5 13 -12 16 -12 25 6 6
12 85 59 182 109 170 88 172 89 186 68 14 -20 14 -20 14 8 -1 25 6 32 44 51
25 12 63 25 85 29 37 6 41 4 78 -37 l39 -44 -32 49 -33 49 69 -6 c38 -3 84
-11 102 -17z m382 -390 c0 -23 -6 -33 -25 -42 -21 -9 -23 -14 -13 -31 10 -19
4 -27 -42 -69 -29 -27 -69 -58 -91 -68 l-38 -20 -24 33 c-14 17 -34 51 -46 74
-25 51 -29 48 110 92 52 17 103 37 114 45 34 26 55 20 55 -14z m-273 -160 c24
-36 43 -70 43 -76 0 -19 -68 -43 -293 -104 -272 -75 -429 -125 -570 -184
l-108 -45 -35 54 c-55 86 -60 78 83 125 70 24 268 95 438 160 379 143 367 139
385 137 8 -1 34 -31 57 -67z m-982 -341 c19 -33 35 -64 35 -68 0 -4 -31 -22
-70 -40 -58 -27 -73 -30 -91 -21 -19 11 -21 18 -17 71 5 66 19 87 71 106 18 6
33 12 34 12 1 1 18 -26 38 -60z"/>
<path d="M2385 4792 c-33 -7 -182 -71 -311 -133 -66 -32 -125 -59 -130 -59 -6
0 -27 -9 -49 -20 -22 -11 -45 -20 -52 -20 -8 0 -16 -7 -19 -15 -4 -8 -11 -12
-18 -8 -6 4 -4 -2 4 -12 9 -11 10 -16 3 -11 -13 7 -14 4 -18 -44 -1 -14 -5
-36 -9 -50 -5 -16 -4 -20 2 -12 12 18 20 -2 16 -38 -4 -37 -6 -38 -14 -5 l-8
30 -1 -32 c0 -18 4 -33 9 -33 6 0 9 -6 8 -12 -2 -7 4 -12 12 -10 11 3 11 -1
-3 -16 -9 -10 -14 -22 -10 -27 5 -4 -1 -3 -12 3 -17 8 -21 7 -23 -6 -7 -51 -6
-65 8 -70 12 -4 13 -2 3 9 -15 19 -6 59 12 52 10 -3 11 -11 6 -26 -10 -25 -11
-31 -11 -53 0 -8 -4 -12 -10 -9 -5 3 -10 1 -10 -4 0 -6 5 -11 10 -11 6 0 5 -6
-2 -14 -7 -8 -16 -12 -20 -10 -4 2 -9 0 -12 -5 -10 -16 -34 -144 -30 -156 3
-7 48 -18 106 -25 55 -8 106 -19 113 -26 9 -10 15 -10 25 -1 10 9 11 9 6 0 -5
-8 -1 -13 9 -13 10 0 14 -5 10 -12 -4 -7 0 -5 8 5 16 19 47 23 47 6 0 -5 4 -8
9 -4 6 3 62 -4 126 -15 65 -12 142 -24 174 -26 31 -3 74 -7 96 -9 22 -2 47 -6
57 -10 9 -3 29 -5 45 -3 l28 3 -35 17 c-19 10 -62 27 -95 38 -82 28 -115 43
-115 53 0 5 6 5 13 1 6 -4 2 4 -10 18 -13 13 -23 29 -23 36 0 6 -7 9 -15 5
-10 -3 -15 -1 -13 7 5 18 -68 37 -264 67 -98 15 -178 31 -178 35 0 4 6 8 14 8
8 0 18 5 22 12 4 6 3 8 -4 4 -5 -3 -13 0 -15 6 -4 10 -6 10 -6 0 -1 -19 -41 5
-41 25 0 11 7 14 25 11 21 -4 24 -2 20 12 -3 11 1 20 10 23 9 4 12 13 8 22 -4
13 -8 14 -14 4 -4 -8 -12 -10 -16 -5 -10 9 26 38 39 30 4 -3 6 -9 3 -14 -3 -5
-1 -11 4 -14 5 -3 11 0 14 8 4 9 -5 21 -20 31 -14 10 -22 12 -19 6 4 -6 3 -11
-2 -11 -6 0 -12 7 -16 15 -3 8 -2 14 2 14 19 -3 23 2 12 16 -11 13 -10 18 6
29 13 10 23 11 31 4 7 -6 13 -7 13 -3 0 4 6 2 13 -4 10 -8 19 -7 33 5 18 15
18 15 -2 5 -12 -6 -25 -7 -29 -3 -3 4 -11 7 -16 7 -5 0 -8 5 -6 10 1 6 6 9 10
7 5 -1 0 8 -10 22 -10 13 -21 22 -25 20 -4 -2 -10 1 -14 7 -4 8 -3 9 4 5 6 -3
16 3 22 14 8 15 17 19 32 14 17 -5 20 -3 15 10 -5 11 -1 16 13 16 12 0 20 7
20 17 0 18 15 8 15 -10 0 -7 9 -11 20 -9 11 2 30 4 42 5 18 1 20 4 12 20 -9
15 -13 16 -27 5 -9 -7 -3 4 13 24 18 22 32 33 36 26 4 -6 18 -12 32 -13 20 -2
24 1 20 16 -4 13 0 19 11 19 10 0 14 5 11 10 -4 6 -3 10 2 9 4 -1 10 0 13 1 3
1 26 3 52 5 26 2 57 10 69 19 23 16 90 13 114 -4 6 -4 24 -11 40 -15 41 -11
46 -12 82 -23 17 -6 34 -8 37 -4 3 3 6 0 6 -6 0 -7 3 -11 8 -10 19 4 102 -16
102 -25 0 -6 3 -8 6 -5 3 4 20 2 37 -4 18 -5 46 -12 62 -14 17 -3 45 -10 64
-16 27 -8 36 -7 49 6 15 15 14 18 -13 44 l-29 27 23 -27 c14 -16 23 -30 20
-32 -2 -2 -15 11 -29 29 -14 19 -36 40 -50 47 -14 7 -27 15 -30 18 -3 3 -25
16 -50 29 -25 13 -59 34 -77 47 -17 13 -34 24 -37 24 -4 0 -30 12 -59 26 -76
37 -149 61 -172 56z m-491 -270 c3 -5 -1 -9 -9 -9 -8 0 -12 4 -9 9 3 4 7 8 9
8 2 0 6 -4 9 -8z m48 -24 c-7 -7 -12 -8 -12 -2 0 14 12 26 19 19 2 -3 -1 -11
-7 -17z m56 -3 c-3 -3 -9 2 -12 12 -6 14 -5 15 5 6 7 -7 10 -15 7 -18z m-162
-43 c0 -10 -8 -19 -18 -19 -10 -1 -18 3 -18 8 0 6 6 7 13 3 9 -6 9 -5 0 8 -14
16 -8 29 11 22 6 -2 12 -12 12 -22z m43 -78 c-6 -7 -15 -11 -21 -8 -5 3 -4 12
3 20 6 7 15 11 21 8 5 -3 4 -12 -3 -20z m-49 -163 c0 -12 -20 -25 -27 -18 -7
7 6 27 18 27 5 0 9 -4 9 -9z m485 -250 c3 -5 2 -12 -3 -15 -5 -3 -9 1 -9 9 0
17 3 19 12 6z"/>
<path d="M2051 4536 c-9 -10 -8 -16 4 -26 13 -11 16 -11 13 1 -2 8 3 13 11 11
12 -3 12 0 1 12 -15 19 -15 19 -29 2z"/>
<path d="M1895 4441 c3 -5 0 -11 -7 -13 -7 -3 -8 -7 -3 -10 6 -3 15 0 22 7 10
10 9 14 -3 19 -8 3 -13 2 -9 -3z"/>
<path d="M1930 4440 c0 -5 5 -10 11 -10 5 0 7 5 4 10 -3 6 -8 10 -11 10 -2 0
-4 -4 -4 -10z"/>
<path d="M1985 4440 c-3 -5 -1 -10 4 -10 6 0 11 5 11 10 0 6 -2 10 -4 10 -3 0
-8 -4 -11 -10z"/>
<path d="M1948 4403 c7 -3 16 -2 19 1 4 3 -2 6 -13 5 -11 0 -14 -3 -6 -6z"/>
<path d="M1857 4334 c-8 -8 1 -24 14 -24 5 0 9 7 9 15 0 15 -12 20 -23 9z"/>
<path d="M1896 4321 c-4 -5 -2 -12 3 -15 5 -4 12 -2 15 3 4 5 2 12 -3 15 -5 4
-12 2 -15 -3z"/>
<path d="M1915 4281 c-3 -5 -2 -12 3 -15 5 -3 9 1 9 9 0 17 -3 19 -12 6z"/>
<path d="M6063 4224 c-264 -45 -577 -136 -738 -215 -133 -65 -196 -114 -213
-164 -23 -70 -14 -70 98 -3 180 107 364 179 715 283 142 42 258 84 283 103 22
17 22 18 3 18 -11 0 -78 -10 -148 -22z"/>
<path d="M850 4163 c-19 -7 -286 -119 -396 -166 -45 -19 -100 -45 -124 -57
l-43 -22 7 -206 c7 -222 23 -511 31 -578 l6 -41 72 20 c40 10 74 21 76 23 3 3
19 119 36 259 18 140 34 257 37 260 2 3 38 1 79 -5 116 -15 167 -13 198 9 67
48 171 50 248 5 24 -14 45 -23 47 -22 2 2 8 -1 13 -6 5 -5 3 -6 -4 -2 -25 14
-13 0 20 -24 17 -13 28 -17 22 -9 -5 8 0 3 12 -11 13 -14 23 -21 23 -16 0 6 6
2 13 -9 11 -14 16 -15 22 -5 5 8 4 11 -2 7 -13 -8 -24 18 -17 38 4 8 -1 17
-10 21 -9 3 -13 10 -10 15 3 5 10 7 15 4 5 -3 6 1 3 9 -3 9 -11 16 -16 16 -6
0 -7 7 -4 16 3 8 2 12 -4 9 -6 -3 -10 0 -10 8 0 8 -8 21 -17 28 -17 13 -17 13
-3 -6 14 -19 14 -19 -3 -6 -9 7 -17 19 -16 25 1 6 1 22 0 36 -1 18 -4 21 -10
11 -7 -11 -10 -11 -17 0 -9 14 -10 19 -12 52 -1 12 -6 15 -14 11 -9 -5 -9 -3
1 9 11 14 11 18 -3 23 -9 3 -13 10 -10 15 3 5 1 9 -4 9 -6 0 -8 9 -5 19 3 10
-1 29 -7 41 -8 15 -8 20 -1 16 14 -9 14 -4 -2 28 -8 14 -16 23 -20 20 -3 -3
-8 3 -12 14 -11 38 -14 62 -6 62 4 0 8 6 8 14 0 8 -6 12 -14 9 -7 -3 -13 -1
-13 4 0 22 -118 41 -160 26z"/>
<path d="M4370 3946 c0 -2 8 -10 18 -17 15 -13 16 -12 3 4 -13 16 -21 21 -21
13z"/>
<path d="M1960 3860 c0 -5 7 -7 15 -4 8 4 15 8 15 10 0 2 -7 4 -15 4 -8 0 -15
-4 -15 -10z"/>
<path d="M2360 3548 c-143 -44 -721 -201 -1010 -274 -483 -122 -1011 -262
-1019 -270 -9 -8 0 -120 14 -179 7 -33 17 -87 20 -120 9 -82 60 -344 96 -490
61 -248 150 -507 226 -660 39 -78 43 -80 66 -43 60 99 201 415 286 645 16 43
57 143 92 223 34 80 76 186 94 235 l31 90 42 3 c98 7 209 -51 259 -135 25 -43
28 -57 27 -133 0 -51 -8 -110 -19 -148 -19 -65 -29 -73 -27 -22 1 34 -5 37
-25 13 -9 -11 -12 -12 -7 -3 13 28 -21 -11 -61 -70 -58 -85 -138 -259 -200
-435 -79 -223 -134 -333 -205 -407 -58 -60 -59 -61 -102 -55 -24 4 -53 10 -65
13 -16 4 -23 2 -23 -8 0 -22 99 -136 181 -211 69 -62 259 -197 276 -197 9 1
83 174 83 194 0 18 -29 28 -86 29 -33 0 -51 -6 -69 -23 -14 -13 -28 -21 -31
-18 -3 3 0 33 6 66 12 58 13 60 49 66 20 3 212 69 426 147 342 124 400 142
475 148 71 6 104 16 200 58 63 28 135 60 160 72 25 13 225 89 445 171 470 174
435 160 435 169 0 3 -26 22 -58 40 -53 32 -60 42 -104 130 -26 53 -124 238
-219 411 -94 173 -222 410 -285 525 -63 116 -145 272 -181 348 -45 91 -72 137
-83 136 -8 -1 -58 -14 -110 -31z m-829 -1365 c-12 -20 -14 -14 -5 12 4 9 9 14
11 11 3 -2 0 -13 -6 -23z"/>
<path d="M1997 3529 c7 -7 15 -10 18 -7 3 3 -2 9 -12 12 -14 6 -15 5 -6 -5z"/>
<path d="M3065 2663 c2 -10 4 -21 4 -25 1 -4 11 -12 24 -18 19 -9 20 -9 6 2
-9 7 -14 18 -12 24 2 6 -3 16 -11 23 -12 10 -14 9 -11 -6z"/>
<path d="M3100 2656 c0 -2 8 -10 18 -17 15 -13 16 -12 3 4 -13 16 -21 21 -21
13z"/>
</g>
</svg>
